<svg id="et6PmIWgiTa1" xmlns="http://www.w3.org/2000/svg" xmlns:xlink="http://www.w3.org/1999/xlink" viewBox="0 0 35 40" shape-rendering="geometricPrecision" text-rendering="geometricPrecision"><path d="M12.5,8.75c0-2.757812,2.242188-5,5-5s5,2.242188,5,5v3.75h-10v-3.75ZM8.75,12.5h-5C1.679688,12.5,0,14.179688,0,16.25v16.25C0,36.640625,3.359375,40,7.5,40h20c4.140625,0,7.5-3.359375,7.5-7.5v-16.25c0-2.070312-1.679687-3.75-3.75-3.75h-5v-3.75C26.25,3.914063,22.335938,0,17.5,0s-8.75,3.914063-8.75,8.75v3.75ZM10.625,20c-1.039062,0-1.875-.835937-1.875-1.875s.835938-1.875,1.875-1.875s1.875.835938,1.875,1.875-.835937,1.875-1.875,1.875ZM26.25,18.125c0,1.039063-.835937,1.875-1.875,1.875s-1.875-.835937-1.875-1.875.835938-1.875,1.875-1.875s1.875.835938,1.875,1.875Z" fill="#fff"/><rect width="3.367219" height="4" rx="1.68" ry="1.68" transform="matrix(1.187924 0 0 1 8.555001 16)" fill="#b00e2f" stroke-width="0"/><rect width="3.367219" height="4" rx="1.68" ry="1.68" transform="matrix(1.187924 0 0 1 22.34 16)" fill="#b00e2f" stroke-width="0"/></svg>
