<svg id="eCdLcnjHXt91" xmlns="http://www.w3.org/2000/svg" xmlns:xlink="http://www.w3.org/1999/xlink" viewBox="0 0 51 44" shape-rendering="geometricPrecision" text-rendering="geometricPrecision"><path d="M4.348148,65.743876L20.85467,81.155593c.685107.63949,1.589449.995778,2.53033.995778s1.845223-.356287,2.53033-.995778L42.421852,65.743876C45.19882,63.158507,46.77,59.531684,46.77,55.740419v-.529863c0-6.385768-4.613057-11.830572-10.90691-12.881163-4.165453-.694304-8.403984.666897-11.381918,3.645095L23.385,47.070757l-1.096172-1.096269c-2.977934-2.978198-7.216465-4.339399-11.381918-3.645095C4.613057,43.379984,0,48.824788,0,55.210556v.529863c0,3.791264,1.57118,7.418088,4.348148,10.003456Z" transform="translate(2-40.151371)" fill="#b00e2f" stroke="#b00e2f" stroke-width="3"/></svg>
