<svg id="eu37ITRMkwc1" xmlns="http://www.w3.org/2000/svg" xmlns:xlink="http://www.w3.org/1999/xlink" viewBox="0 0 52 45" shape-rendering="geometricPrecision" text-rendering="geometricPrecision"><path d="M4.239375,65.154063L20.332969,80.180487c.667968.623503,1.549687.970884,2.467031.970884s1.799063-.34738,2.467031-.970884L41.360625,65.154063C44.068125,62.633329,45.6,59.097176,45.6,55.400693v-.516616c0-6.226124-4.497657-11.534808-10.634062-12.559134-4.06125-.676946-8.19375.650225-11.097188,3.553968L22.8,46.947772L21.73125,45.87891c-2.903438-2.903743-7.035938-4.230914-11.097188-3.553968C4.497657,43.349269,0,48.657953,0,54.884076v.516616c0,3.696482,1.531875,7.232636,4.239375,9.75337Z" transform="translate(3.115-39.1514)" fill="#fff" stroke="#b00e2f" stroke-width="5"/></svg>
